 http://www.imdb.com/title/tt0962711/

Source: The.Objective.2008.Blu-ray.720p.x264.DTS.MySilu Thanks!

Hardcoded English subs when needed.

Subs: Arabic, Danish, Dutch, English, Finnish, Greek, Indonesian, Norwegian, Romanian, Servian, Spanish and Vietnamese.

Sample and Screens included.

General
Complete name                            : The Objective-720p MP4 AAC x264 BRRip 2008-CC.mp4
Format                                   : MPEG-4
Format profile                           : Base Media
Codec ID                                 : isom
File size                                : 2.80 GiB
Duration                                 : 1h 30mn
Overall bit rate mode                    : Variable
Overall bit rate                         : 4 445 Kbps
Encoded date                             : UTC 2012-12-02 16:28:42

Video
ID                                       : 1
Format                                   : AVC
Format/Info                              : Advanced Video Codec
Format profile                           : High@L4.1
Format settings, CABAC                   : Yes
Format settings, ReFrames                : 5 frames
Codec ID                                 : avc1
Codec ID/Info                            : Advanced Video Coding
Duration                                 : 1h 30mn
Bit rate                                 : 4 222 Kbps
Maximum bit rate                         : 36.2 Mbps
Width                                    : 1 280 pixels
Height                                   : 720 pixels
Display aspect ratio                     : 16:9
Frame rate mode                          : Variable
Frame rate                               : 23.963 fps
Minimum frame rate                       : 15.873 fps
Maximum frame rate                       : 24.390 fps
Color space                              : YUV
Chroma subsampling                       : 4:2:0
Bit depth                                : 8 bits
Scan type                                : Progressive
Bits/(Pixel*Frame)                       : 0.191
Stream size                              : 2.55 GiB (91%)
Writing library                          : x264 core 112

Audio
ID                                       : 2
Format                                   : AAC
Format/Info                              : Advanced Audio Codec
Format profile                           : LC
Codec ID                                 : 40
Duration                                 : 1h 30mn
Bit rate mode                            : Variable
Bit rate                                 : 384 Kbps
Maximum bit rate                         : 631 Kbps
Channel(s)                               : 6 channels
Channel positions                        : Front: L C R, Side: L R, LFE
Sampling rate                            : 48.0 KHz
Compression mode                         : Lossy
Delay relative to video                  : 83ms
Stream size                              : 247 MiB (9%)
Language                                 : English

Enjoy...

Requested by cmptrluvr's

Coming soon: Donnie Darko, Buffalo 66, Blade Trilogy and more...